<svg xmlns="http://www.w3.org/2000/svg" width="24" height="24" viewBox="0 0 24 24">
  <rect width="24" height="24" fill="none"/>
  <path fill="#000000" d="M12 5a7 7 0 1 0 7 7a7 7 0 0 0-7-7m0 12.5a5.5 5.5 0 1 1 5.5-5.5a5.51 5.51 0 0 1-5.5 5.5m3.5-5.5a3.5 3.5 0 1 1-3.5-3.5a3.5 3.5 0 0 1 3.5 3.5m-5 0a1.5 1.5 0 1 0 1.5-1.5a1.5 1.5 0 0 0-1.5 1.5"/>
  <path fill="#000000" d="M16.5 6h-1.8l-.5-1.2A1 1 0 0 0 13.3 4h-2.6a1 1 0 0 0-.9.8L9.3 6H7.5a2 2 0 0 0-2 2v8a2 2 0 0 0 2 2h9a2 2 0 0 0 2-2V8a2 2 0 0 0-2-2m-4.5 10a4 4 0 1 1 4-4a4 4 0 0 1-4 4m3-4a3 3 0 1 0-3 3a3 3 0 0 0 3-3"/>
</svg>
