<svg width="23" height="20" viewBox="0 0 23 20" fill="none" xmlns="http://www.w3.org/2000/svg">
<path d="M15.3182 19.0002V17.0911C15.3182 16.0785 14.9159 15.1073 14.1999 14.3913C13.4838 13.6752 12.5126 13.2729 11.5 13.2729H4.81818C3.80554 13.2729 2.83437 13.6752 2.11832 14.3913C1.40227 15.1073 1 16.0785 1 17.0911V19.0002" stroke="black" stroke-width="2" stroke-linecap="round" stroke-linejoin="round"/>
<path d="M8.159 9.45472C10.2677 9.45472 11.9772 7.74527 11.9772 5.63654C11.9772 3.52782 10.2677 1.81836 8.159 1.81836C6.05028 1.81836 4.34082 3.52782 4.34082 5.63654C4.34082 7.74527 6.05028 9.45472 8.159 9.45472Z" stroke="black" stroke-width="2" stroke-linecap="round" stroke-linejoin="round"/>
<path d="M19.1362 6.59131V12.3186" stroke="black" stroke-width="1.5" stroke-linecap="round" stroke-linejoin="round"/>
<path d="M22.0002 9.45459H16.2729" stroke="black" stroke-width="1.5" stroke-linecap="round" stroke-linejoin="round"/>
</svg>
